<mxfile host="app.diagrams.net" modified="2023-03-08T11:29:25.379Z" agent="5.0 (Macintosh; Intel Mac OS X 10_15_7) AppleWebKit/537.36 (KHTML, like Gecko) Chrome/109.0.0.0 Safari/537.36" etag="j-dpoMzm6HHYypJothCh" version="21.0.2" type="github">
  <diagram name="第 1 页" id="A7-YIH5xd3OKFhuG5N33">
    <mxGraphModel dx="1026" dy="692" grid="1" gridSize="10" guides="1" tooltips="1" connect="1" arrows="1" fold="1" page="1" pageScale="1" pageWidth="827" pageHeight="1169" math="0" shadow="0">
      <root>
        <mxCell id="0" />
        <mxCell id="1" parent="0" />
        <mxCell id="w2RXb9Sa_52n3VJn52bc-4" style="edgeStyle=orthogonalEdgeStyle;rounded=0;orthogonalLoop=1;jettySize=auto;html=1;exitX=1;exitY=0.5;exitDx=0;exitDy=0;entryX=0;entryY=0.5;entryDx=0;entryDy=0;" parent="1" source="w2RXb9Sa_52n3VJn52bc-1" edge="1">
          <mxGeometry relative="1" as="geometry">
            <mxPoint x="310" y="260" as="targetPoint" />
          </mxGeometry>
        </mxCell>
        <mxCell id="w2RXb9Sa_52n3VJn52bc-1" value="" style="rounded=0;whiteSpace=wrap;html=1;" parent="1" vertex="1">
          <mxGeometry x="80" y="230" width="120" height="60" as="geometry" />
        </mxCell>
        <mxCell id="FAeGMaZBL8JjBptUtzRO-1" value="" style="rounded=0;whiteSpace=wrap;html=1;" vertex="1" parent="1">
          <mxGeometry x="310" y="230" width="120" height="60" as="geometry" />
        </mxCell>
        <mxCell id="FAeGMaZBL8JjBptUtzRO-2" value="" style="rounded=0;whiteSpace=wrap;html=1;" vertex="1" parent="1">
          <mxGeometry x="320" y="240" width="120" height="60" as="geometry" />
        </mxCell>
        <mxCell id="FAeGMaZBL8JjBptUtzRO-3" value="" style="rounded=0;whiteSpace=wrap;html=1;" vertex="1" parent="1">
          <mxGeometry x="330" y="250" width="120" height="60" as="geometry" />
        </mxCell>
        <mxCell id="FAeGMaZBL8JjBptUtzRO-4" value="" style="rounded=0;whiteSpace=wrap;html=1;" vertex="1" parent="1">
          <mxGeometry x="340" y="260" width="120" height="60" as="geometry" />
        </mxCell>
        <mxCell id="FAeGMaZBL8JjBptUtzRO-5" value="" style="rounded=0;whiteSpace=wrap;html=1;" vertex="1" parent="1">
          <mxGeometry x="350" y="270" width="120" height="60" as="geometry" />
        </mxCell>
        <mxCell id="FAeGMaZBL8JjBptUtzRO-6" value="" style="rounded=0;whiteSpace=wrap;html=1;" vertex="1" parent="1">
          <mxGeometry x="360" y="280" width="120" height="60" as="geometry" />
        </mxCell>
      </root>
    </mxGraphModel>
  </diagram>
</mxfile>
